<?xml version="1.0" encoding="iso-8859-1"?>
<!-- Generator: Adobe Illustrator 19.0.0, SVG Export Plug-In . SVG Version: 6.00 Build 0)  -->
<svg version="1.1" id="Layer_1" xmlns="http://www.w3.org/2000/svg" xmlns:xlink="http://www.w3.org/1999/xlink" x="0px" y="0px"
	 viewBox="0 0 512 512" style="enable-background:new 0 0 512 512;" xml:space="preserve">
<path style="fill:#5286FA;" d="M23.273,372.364H178.44c29.935,0,54.288,24.362,54.288,54.308c0,21.386-17.394,38.783-38.774,38.783
	c-14.536,0-26.362-11.83-26.362-26.374c0-12.853-10.42-23.273-23.273-23.273c-12.853,0-23.273,10.42-23.273,23.273
	c0,40.208,32.706,72.92,72.907,72.92c47.045,0,85.319-38.277,85.319-85.329c0-55.611-45.233-100.853-100.833-100.853H23.273
	C10.42,325.818,0,336.238,0,349.091C0,361.944,10.42,372.364,23.273,372.364z"/>
<path style="fill:#424EDE;" d="M23.273,263.758h344.781c79.372,0,143.946-64.576,143.946-143.95C512,53.746,458.252,0,392.189,0
	c-55.42,0-100.506,45.085-100.506,100.501c0,46.901,38.155,85.059,85.054,85.059c12.853,0,23.273-10.42,23.273-23.273
	s-10.42-23.273-23.273-23.273c-21.234,0-38.509-17.278-38.509-38.513c0-29.752,24.207-53.955,53.96-53.955
	c40.398,0,73.266,32.866,73.266,73.263c0,53.709-43.694,97.404-97.401,97.404H23.273C10.42,217.212,0,227.632,0,240.485
	C0,253.338,10.42,263.758,23.273,263.758z"/>
<g>
</g>
<g>
</g>
<g>
</g>
<g>
</g>
<g>
</g>
<g>
</g>
<g>
</g>
<g>
</g>
<g>
</g>
<g>
</g>
<g>
</g>
<g>
</g>
<g>
</g>
<g>
</g>
<g>
</g>
</svg>
