<?xml version="1.0" encoding="UTF-8" standalone="no"?>
<svg
   xmlns:dc="http://purl.org/dc/elements/1.1/"
   xmlns:cc="http://creativecommons.org/ns#"
   xmlns:rdf="http://www.w3.org/1999/02/22-rdf-syntax-ns#"
   xmlns:svg="http://www.w3.org/2000/svg"
   xmlns="http://www.w3.org/2000/svg"
   xmlns:sodipodi="http://sodipodi.sourceforge.net/DTD/sodipodi-0.dtd"
   xmlns:inkscape="http://www.inkscape.org/namespaces/inkscape"
   viewBox="0 0 240 240"
   version="1.1"
   id="svg4"
   sodipodi:docname="bell_slash_240_white.svg"
   width="240"
   height="240"
   inkscape:version="0.92.4 5da689c313, 2019-01-14">
  <metadata
     id="metadata10">
    <rdf:RDF>
      <cc:Work
         rdf:about="">
        <dc:format>image/svg+xml</dc:format>
        <dc:type
           rdf:resource="http://purl.org/dc/dcmitype/StillImage" />
        <dc:title></dc:title>
      </cc:Work>
    </rdf:RDF>
  </metadata>
  <defs
     id="defs8" />
  <sodipodi:namedview
     pagecolor="#ffffff"
     bordercolor="#666666"
     borderopacity="1"
     objecttolerance="10"
     gridtolerance="10"
     guidetolerance="10"
     inkscape:pageopacity="0"
     inkscape:pageshadow="2"
     inkscape:window-width="1243"
     inkscape:window-height="980"
     id="namedview6"
     showgrid="false"
     inkscape:zoom="1.66875"
     inkscape:cx="73.713874"
     inkscape:cy="142.34797"
     inkscape:window-x="8"
     inkscape:window-y="48"
     inkscape:window-maximized="0"
     inkscape:current-layer="svg4" />
  <path
     d="M 2.3176675,195.78708 36.300267,169.51826 c -0.0712,-0.5175 -0.3,-0.9975 -0.3,-1.5225 -0.0188,-2.83126 0.97875,-5.72627 3.22876,-8.14128 7.24502,-7.78502 20.8013,-19.4963 20.8013,-57.85891 0,-29.137582 20.43006,-52.462646 47.977643,-58.185162 v -7.811272 c 0,-6.626268 5.37001,-12.000033 11.99253,-12.000033 6.62252,0 11.99253,5.373765 11.99253,12.000033 v 7.815022 c 15.12379,3.142509 27.99758,11.651282 36.59635,23.463815 l 54.36015,-42.015117 c 2.61751,-2.032505 6.39002,-1.563754 8.42253,1.053753 l 7.36502,9.476277 c 2.0325,2.613757 1.56375,6.382517 -1.05376,8.418773 L 17.051457,214.73589 c -2.6175,2.03625 -6.38626,1.56375 -8.4225195,-1.05376 l -7.36502,-9.47627 c -2.03250005,-2.61376 -1.56375005,-6.38252 1.05375,-8.41878 z M 181.03942,118.32687 c 3.22876,25.48507 13.65379,34.99885 19.73255,41.53136 2.25001,2.41876 3.24751,5.31002 3.22876,8.14128 -0.0412,6.15001 -4.86751,12.00003 -12.03753,12.00003 h -90.72025 z m -61.03892,97.67277 c -13.24504,0 -23.988823,-10.74378 -23.988823,-24.00007 h 47.977633 c 0,13.25629 -10.74377,24.00007 -23.98881,24.00007 z"
     id="path2"
     inkscape:connector-curvature="0"
     style="stroke-width:0.37500104;fill:#ffffff;fill-opacity:1" />
</svg>
