<?xml version="1.0" encoding="iso-8859-1"?>
<!-- Generator: Adobe Illustrator 19.0.0, SVG Export Plug-In . SVG Version: 6.00 Build 0)  -->
<svg version="1.1" id="Layer_1" xmlns="http://www.w3.org/2000/svg" xmlns:xlink="http://www.w3.org/1999/xlink" x="0px" y="0px"
	 viewBox="0 0 512.004 512.004" style="enable-background:new 0 0 512.004 512.004;" xml:space="preserve">
<g>
	<rect x="154.62" y="484.1" style="fill:#CFDCE5;" width="44.647" height="27.904"/>
	<rect x="312.736" y="484.1" style="fill:#CFDCE5;" width="44.647" height="27.904"/>
</g>
<path style="fill:#415E72;" d="M370.888,485.88H141.116c-17.04,0-30.854-13.813-30.854-30.854V30.854
	C110.262,13.813,124.076,0,141.116,0h229.772c17.04,0,30.854,13.813,30.854,30.854v125.322v298.851
	C401.74,472.067,387.927,485.88,370.888,485.88z"/>
<path style="fill:#CFDCE5;" d="M348.003,341.361c0-50.843-41.158-92.002-92.002-92.002s-92.002,41.158-92.002,92.002
	s41.158,92.002,92.002,92.002S348.003,392.205,348.003,341.361z"/>
<path style="fill:#BAC6CC;" d="M256.001,314.031c15.104,0,27.331,12.227,27.331,27.331s-12.227,27.331-27.331,27.331
	s-27.331-12.227-27.331-27.331S240.897,314.031,256.001,314.031z"/>
<path style="fill:#CFDCE5;" d="M230.166,55.56c31.892,0,57.747,25.855,57.747,57.747c0,31.911-25.855,57.766-57.747,57.766
	c-31.911,0-57.766-25.855-57.766-57.766C172.4,81.415,198.255,55.56,230.166,55.56z"/>
<path style="fill:#BAC6CC;" d="M230.16,92.179c11.673,0,21.135,9.463,21.135,21.135c0,11.68-9.463,21.142-21.135,21.142
	c-11.68,0-21.142-9.463-21.142-21.142C209.018,101.642,218.48,92.179,230.16,92.179z"/>
<circle style="fill:#CFDCE5;" cx="332.111" cy="206.178" r="29.109"/>
<g>
	<path style="fill:#344F5E;" d="M256.001,439.905c-54.338,0-98.544-44.207-98.544-98.545s44.207-98.543,98.545-98.543
		s98.545,44.206,98.545,98.543S310.339,439.905,256.001,439.905z M256.001,255.901c-47.123,0-85.461,38.337-85.461,85.46
		s38.337,85.461,85.461,85.461s85.461-38.337,85.461-85.461S303.124,255.901,256.001,255.901z"/>
	<path style="fill:#344F5E;" d="M230.167,177.615c-35.459,0-64.307-28.848-64.307-64.307c0-35.449,28.848-64.288,64.307-64.288
		c35.449,0,64.288,28.84,64.288,64.288C294.454,148.767,265.615,177.615,230.167,177.615z M230.167,62.102
		c-28.245,0-51.224,22.97-51.224,51.205c0,28.245,22.979,51.224,51.224,51.224c28.235,0,51.205-22.979,51.205-51.224
		C281.371,85.072,258.401,62.102,230.167,62.102z"/>
	<path style="fill:#344F5E;" d="M332.113,241.83c-19.657,0-35.65-15.992-35.65-35.65s15.992-35.65,35.65-35.65
		c19.658,0,35.65,15.992,35.65,35.65C367.762,225.836,351.77,241.83,332.113,241.83z M332.113,183.612
		c-12.443,0-22.567,10.124-22.567,22.567s10.124,22.567,22.567,22.567c12.443,0,22.567-10.124,22.567-22.567
		C354.679,193.736,344.555,183.612,332.113,183.612z"/>
</g>
<g>
</g>
<g>
</g>
<g>
</g>
<g>
</g>
<g>
</g>
<g>
</g>
<g>
</g>
<g>
</g>
<g>
</g>
<g>
</g>
<g>
</g>
<g>
</g>
<g>
</g>
<g>
</g>
<g>
</g>
</svg>
