<?xml version="1.0" encoding="UTF-8" standalone="no"?>
<svg
   xmlns:dc="http://purl.org/dc/elements/1.1/"
   xmlns:cc="http://creativecommons.org/ns#"
   xmlns:rdf="http://www.w3.org/1999/02/22-rdf-syntax-ns#"
   xmlns:svg="http://www.w3.org/2000/svg"
   xmlns="http://www.w3.org/2000/svg"
   xmlns:sodipodi="http://sodipodi.sourceforge.net/DTD/sodipodi-0.dtd"
   xmlns:inkscape="http://www.inkscape.org/namespaces/inkscape"
   viewBox="0 0 240 240"
   version="1.1"
   id="svg4"
   sodipodi:docname="bell_240_black.svg"
   width="240"
   height="240"
   inkscape:version="0.92.4 5da689c313, 2019-01-14">
  <metadata
     id="metadata10">
    <rdf:RDF>
      <cc:Work
         rdf:about="">
        <dc:format>image/svg+xml</dc:format>
        <dc:type
           rdf:resource="http://purl.org/dc/dcmitype/StillImage" />
        <dc:title></dc:title>
      </cc:Work>
    </rdf:RDF>
  </metadata>
  <defs
     id="defs8" />
  <sodipodi:namedview
     pagecolor="#ffffff"
     bordercolor="#666666"
     borderopacity="1"
     objecttolerance="10"
     gridtolerance="10"
     guidetolerance="10"
     inkscape:pageopacity="0"
     inkscape:pageshadow="2"
     inkscape:window-width="1243"
     inkscape:window-height="980"
     id="namedview6"
     showgrid="false"
     inkscape:zoom="1.8923963"
     inkscape:cx="122.11338"
     inkscape:cy="161.96396"
     inkscape:window-x="8"
     inkscape:window-y="48"
     inkscape:window-maximized="0"
     inkscape:current-layer="svg4" />
  <path
     d="m 119.99965,240 c 16.55625,0 29.98594,-13.42969 29.98594,-30 H 90.01372 c 0,16.57031 13.42969,30 29.98593,30 z m 100.96406,-70.17656 c -9.05625,-9.73125 -26.00156,-24.37032 -26.00156,-72.323439 0,-36.421875 -25.5375,-65.578125 -59.97187,-72.73125 V 15.000002 C 134.99028,6.7171881 128.27777,6.4688717e-7 119.99965,6.4688717e-7 111.72153,6.4688717e-7 105.00903,6.7171881 105.00903,15.000002 v 9.768749 c -34.434373,7.153125 -59.971874,36.309375 -59.971874,72.73125 0,47.953119 -16.945312,62.592189 -26.001562,72.323439 -2.8125,3.02344 -4.059375,6.6375 -4.035937,10.17656 0.05156,7.6875 6.084375,15 15.046874,15 H 209.95278 c 8.9625,0 15,-7.3125 15.04687,-15 0.0234,-3.53906 -1.22343,-7.15781 -4.03594,-10.17656 z"
     id="path2"
     inkscape:connector-curvature="0"
     style="stroke-width:0.46875003" />
</svg>
