<?xml version="1.0" encoding="UTF-8" standalone="no"?>
<svg
   xmlns:dc="http://purl.org/dc/elements/1.1/"
   xmlns:cc="http://creativecommons.org/ns#"
   xmlns:rdf="http://www.w3.org/1999/02/22-rdf-syntax-ns#"
   xmlns:svg="http://www.w3.org/2000/svg"
   xmlns="http://www.w3.org/2000/svg"
   xml:space="preserve"
   style="enable-background:new 0 0 56.966 56.966;"
   viewBox="0 0 56.966 56.966"
   y="0px"
   x="0px"
   id="Capa_1"
   version="1.1"><metadata
   id="metadata39"><rdf:RDF><cc:Work
       rdf:about=""><dc:format>image/svg+xml</dc:format><dc:type
         rdf:resource="http://purl.org/dc/dcmitype/StillImage" /><dc:title></dc:title></cc:Work></rdf:RDF></metadata><defs
   id="defs37" />
<path
   style="display:inline;fill:#ffffff;fill-opacity:1"
   id="path2"
   d="M 55.146,51.887 41.588,37.786 c 3.486,-4.144 5.396,-9.358 5.396,-14.786 0,-12.682 -10.318,-23 -23,-23 -12.682,0 -23,10.318 -23,23 0,12.682 10.318,23 23,23 4.761,0 9.298,-1.436 13.177,-4.162 l 13.661,14.208 c 0.571,0.593 1.339,0.92 2.162,0.92 0.779,0 1.518,-0.297 2.079,-0.837 1.192,-1.147 1.23,-3.049 0.083,-4.242 z M 23.984,6 c 9.374,0 17,7.626 17,17 0,9.374 -7.626,17 -17,17 -9.374,0 -17,-7.626 -17,-17 0,-9.374 7.626,-17 17,-17 z" />
<g
   id="g4">
</g>
<g
   id="g6">
</g>
<g
   style="display:inline"
   id="g8">
</g>
<g
   id="g10">
</g>
<g
   id="g12">
</g>
<g
   id="g14">
</g>
<g
   id="g16">
</g>
<g
   id="g18">
</g>
<g
   style="display:inline"
   id="g20">
</g>
<g
   id="g22">
</g>
<g
   id="g24">
</g>
<g
   id="g26">
</g>
<g
   id="g28">
</g>
<g
   id="g30">
</g>
<g
   style="display:inline"
   id="g32">
</g>
</svg>