<?xml version="1.0" encoding="UTF-8" standalone="no"?>
<svg
   xmlns:dc="http://purl.org/dc/elements/1.1/"
   xmlns:cc="http://creativecommons.org/ns#"
   xmlns:rdf="http://www.w3.org/1999/02/22-rdf-syntax-ns#"
   xmlns:svg="http://www.w3.org/2000/svg"
   xmlns="http://www.w3.org/2000/svg"
   xml:space="preserve"
   style="enable-background:new 0 0 49.464 49.464;"
   viewBox="0 0 49.464 49.464"
   y="0px"
   x="0px"
   id="Capa_1"
   version="1.1"><metadata
   id="metadata43"><rdf:RDF><cc:Work
       rdf:about=""><dc:format>image/svg+xml</dc:format><dc:type
         rdf:resource="http://purl.org/dc/dcmitype/StillImage" /><dc:title></dc:title></cc:Work></rdf:RDF></metadata><defs
   id="defs41" />
<g
   id="g6">
	<g
   id="g4">
		<path
   id="path2"
   d="m 5.265,6.651 v 36.182 c 0,3.152 3.079,6.301 6.185,6.605 0.179,0.018 0.482,0.026 0.66,0.026 2.336,0 4.395,-1.435 5.997,-2.587 0.28,-0.2 0.579,-0.394 0.835,-0.566 2.257,-1.526 4.499,-3.154 6.652,-4.729 1.86,-1.359 3.791,-2.766 5.706,-4.085 1.777,-1.225 3.543,-2.475 5.303,-3.724 l 1.908,-1.352 c 3.051,-2.08 5.688,-3.877 5.688,-7.682 0,-3.947 -3.188,-6.031 -5.688,-7.663 C 38.136,16.81 37.752,16.546 37.368,16.282 36.92,15.974 36.471,15.666 36.035,15.353 32.191,12.59 28.425,9.893 24.599,7.268 24.069,6.904 23.535,6.533 22.998,6.16 21.599,5.187 20.151,4.181 18.71,3.256 18.371,3.038 18.01,2.76 17.627,2.468 16.185,1.368 14.39,0 12.215,0 11.344,0 10.257,0.225 9.48,0.666 7.651,1.706 5.265,3.897 5.265,6.651 Z m 4,0 c 0,-0.787 1.103,-1.887 2.191,-2.505 0.175,-0.1 0.457,-0.145 0.635,-0.145 0.824,0 2.086,0.914 3.05,1.649 0.463,0.353 0.931,0.686 1.377,0.972 1.38,0.887 2.812,1.871 4.183,2.824 0.543,0.377 1.09,0.752 1.627,1.121 3.794,2.603 7.545,5.286 11.37,8.035 0.458,0.329 0.933,0.654 1.404,0.978 0.368,0.254 0.737,0.506 1.158,0.803 2.724,1.78 3.938,2.832 3.938,4.357 0,1.491 -0.791,2.23 -3.967,4.396 l -1.94,1.375 c -1.744,1.237 -3.49,2.478 -5.253,3.691 -1.961,1.352 -3.907,2.773 -5.789,4.149 -2.125,1.553 -4.322,3.159 -6.519,4.646 -0.284,0.192 -0.584,0.407 -0.896,0.631 -1.137,0.817 -2.553,1.835 -3.601,1.835 -0.048,0 -0.345,-0.002 -0.394,-0.007 C 10.774,45.352 9.263,43.929 9.263,42.831 V 6.651 Z" />
	</g>
</g>
<g
   id="g8">
</g>
<g
   id="g10">
</g>
<g
   id="g12">
</g>
<g
   id="g14">
</g>
<g
   id="g16">
</g>
<g
   id="g18">
</g>
<g
   id="g20">
</g>
<g
   id="g22">
</g>
<g
   id="g24">
</g>
<g
   id="g26">
</g>
<g
   id="g28">
</g>
<g
   id="g30">
</g>
<g
   id="g32">
</g>
<g
   id="g34">
</g>
<g
   id="g36">
</g>
<g
   id="layer1"><path
     id="path851"
     d="M 7.1138299,5.7435878 V 44.128628 c 0,0 1.3338431,3.853325 3.6310171,3.556915 2.297174,-0.296409 30.974801,-20.74867 30.974801,-20.74867 0,0 2.14897,-3.112301 -0.370512,-5.113066 -2.519481,-2.000764 -27.8625,-19.4889294 -27.8625,-19.4889294 0,0 -3.038198,-2.22307184 -6.3728061,3.4087102 z"
     style="fill:#000000;stroke:#000000;stroke-width:0;stroke-linecap:butt;stroke-linejoin:miter;stroke-opacity:1;stroke-miterlimit:4;stroke-dasharray:none" /></g></svg>