<?xml version="1.0" encoding="iso-8859-1"?>
<!-- Generator: Adobe Illustrator 19.0.0, SVG Export Plug-In . SVG Version: 6.00 Build 0)  -->
<svg version="1.1" id="Layer_1" xmlns="http://www.w3.org/2000/svg" xmlns:xlink="http://www.w3.org/1999/xlink" x="0px" y="0px"
	 viewBox="0 0 511.998 511.998" style="enable-background:new 0 0 511.998 511.998;" xml:space="preserve">
<g>
	<g>
		<path d="M456.926,41.282C430.309,14.661,394.915,0,357.269,0c-37.647,0-73.041,14.661-99.661,41.282
			c-26.62,26.622-41.282,62.016-41.282,99.663c0,29.519,9.05,57.631,25.774,81.236L130.15,334.146
			c-0.051,0.05-0.107,0.093-0.16,0.144c-0.05,0.05-0.093,0.107-0.144,0.158l-67.467,67.476c-0.072,0.072-0.154,0.133-0.227,0.206
			c-0.074,0.074-0.134,0.154-0.206,0.229l-41.133,41.136c-9.365,9.367-9.365,24.556,0.003,33.921
			c4.683,4.683,10.82,7.024,16.959,7.024c6.139,0,12.279-2.343,16.961-7.028l24.388-24.391l51.952,51.952
			c4.684,4.683,10.822,7.024,16.959,7.024c6.137,0,12.277-2.343,16.959-7.024c9.365-9.367,9.365-24.553,0-33.92l-51.953-51.953
			l33.918-33.923l24.388,24.386c4.685,4.683,10.822,7.024,16.959,7.024c6.139,0,12.277-2.343,16.959-7.024
			c9.365-9.367,9.365-24.553,0-33.921l-24.39-24.388l95.139-95.154c23.611,16.732,51.728,25.786,81.252,25.786
			c37.645,0,73.039-14.66,99.66-41.28c26.622-26.619,41.283-62.013,41.283-99.661C498.209,103.297,483.548,67.902,456.926,41.282z
			 M423.013,206.686c-17.56,17.56-40.909,27.231-65.742,27.231c-24.833,0-48.181-9.671-65.742-27.231
			c-17.562-17.559-27.233-40.907-27.233-65.742c-0.002-24.833,9.669-48.18,27.229-65.742c17.562-17.56,40.909-27.233,65.743-27.233
			c24.833,0,48.181,9.672,65.743,27.233c17.559,17.559,27.231,40.907,27.231,65.743C450.244,165.78,440.573,189.129,423.013,206.686
			z"/>
	</g>
</g>
<g>
</g>
<g>
</g>
<g>
</g>
<g>
</g>
<g>
</g>
<g>
</g>
<g>
</g>
<g>
</g>
<g>
</g>
<g>
</g>
<g>
</g>
<g>
</g>
<g>
</g>
<g>
</g>
<g>
</g>
</svg>
