<?xml version="1.0" encoding="UTF-8" standalone="no"?>
<svg
   xmlns:dc="http://purl.org/dc/elements/1.1/"
   xmlns:cc="http://creativecommons.org/ns#"
   xmlns:rdf="http://www.w3.org/1999/02/22-rdf-syntax-ns#"
   xmlns:svg="http://www.w3.org/2000/svg"
   xmlns="http://www.w3.org/2000/svg"
   xmlns:xlink="http://www.w3.org/1999/xlink"
   xmlns:sodipodi="http://sodipodi.sourceforge.net/DTD/sodipodi-0.dtd"
   xmlns:inkscape="http://www.inkscape.org/namespaces/inkscape"
   height="240"
   width="240"
   xml:space="preserve"
   viewBox="0 0 240.00001 240.00001"
   y="0px"
   x="0px"
   id="Layer_1"
   version="1.1"
   sodipodi:docname="key_240_bright.svg"
   inkscape:version="0.92.4 5da689c313, 2019-01-14"><sodipodi:namedview
   pagecolor="#ffffff"
   bordercolor="#666666"
   borderopacity="1"
   objecttolerance="10"
   gridtolerance="10"
   guidetolerance="10"
   inkscape:pageopacity="0"
   inkscape:pageshadow="2"
   inkscape:window-width="1266"
   inkscape:window-height="980"
   id="namedview29"
   showgrid="false"
   inkscape:zoom="0.98333333"
   inkscape:cx="122.0339"
   inkscape:cy="117.9661"
   inkscape:window-x="8"
   inkscape:window-y="48"
   inkscape:window-maximized="0"
   inkscape:current-layer="Layer_1" /><metadata
   id="metadata43"><rdf:RDF><cc:Work
       rdf:about=""><dc:format>image/svg+xml</dc:format><dc:type
         rdf:resource="http://purl.org/dc/dcmitype/StillImage" /><dc:title></dc:title></cc:Work></rdf:RDF></metadata><defs
   id="defs41"><linearGradient
     id="linearGradient856"><stop
       id="stop852"
       offset="0"
       style="stop-color:#ffd143;stop-opacity:1" /><stop
       id="stop854"
       offset="1"
       style="stop-color:#f6e000;stop-opacity:1" /></linearGradient><linearGradient
     gradientUnits="userSpaceOnUse"
     y2="-2.1694829"
     x2="-2.1694829"
     y1="516.33691"
     x1="518.50641"
     id="linearGradient858"
     xlink:href="#linearGradient856" /><clipPath
     id="clipPath860"
     clipPathUnits="userSpaceOnUse"><g
       transform="rotate(90,255.99931,255.9985)"
       id="g866">
	<g
   id="g864">
		<path
   id="path862"
   d="M 456.926,41.282 C 430.309,14.661 394.915,0 357.269,0 c -37.647,0 -73.041,14.661 -99.661,41.282 -26.62,26.622 -41.282,62.016 -41.282,99.663 0,29.519 9.05,57.631 25.774,81.236 L 130.15,334.146 c -0.051,0.05 -0.107,0.093 -0.16,0.144 -0.05,0.05 -0.093,0.107 -0.144,0.158 l -67.467,67.476 c -0.072,0.072 -0.154,0.133 -0.227,0.206 -0.074,0.074 -0.134,0.154 -0.206,0.229 l -41.133,41.136 c -9.365,9.367 -9.365,24.556 0.003,33.921 4.683,4.683 10.82,7.024 16.959,7.024 6.139,0 12.279,-2.343 16.961,-7.028 l 24.388,-24.391 51.952,51.952 c 4.684,4.683 10.822,7.024 16.959,7.024 6.137,0 12.277,-2.343 16.959,-7.024 9.365,-9.367 9.365,-24.553 0,-33.92 l -51.953,-51.953 33.918,-33.923 24.388,24.386 c 4.685,4.683 10.822,7.024 16.959,7.024 6.139,0 12.277,-2.343 16.959,-7.024 9.365,-9.367 9.365,-24.553 0,-33.921 l -24.39,-24.388 95.139,-95.154 c 23.611,16.732 51.728,25.786 81.252,25.786 37.645,0 73.039,-14.66 99.66,-41.28 26.622,-26.619 41.283,-62.013 41.283,-99.661 0,-37.648 -14.661,-73.043 -41.283,-99.663 z m -33.913,165.404 c -17.56,17.56 -40.909,27.231 -65.742,27.231 -24.833,0 -48.181,-9.671 -65.742,-27.231 -17.562,-17.559 -27.233,-40.907 -27.233,-65.742 -0.002,-24.833 9.669,-48.18 27.229,-65.742 17.562,-17.56 40.909,-27.233 65.743,-27.233 24.833,0 48.181,9.672 65.743,27.233 17.559,17.559 27.231,40.907 27.231,65.743 0.002,24.835 -9.669,48.184 -27.229,65.741 z" />
	</g>
</g></clipPath></defs>
<rect
   transform="matrix(0.4681301,0,0,0.4681301,0.04164111,-2.4374965)"
   clip-path="url(#clipPath860)"
   y="-2.1694829"
   x="-2.1694829"
   height="518.50641"
   width="520.6759"
   id="rect850"
   style="opacity:1;fill:url(#linearGradient858);fill-opacity:1;fill-rule:nonzero;stroke:#ef1266;stroke-width:0;stroke-miterlimit:4;stroke-dasharray:none;stroke-opacity:1" />
<g
   transform="translate(0,-271.99799)"
   id="g8">
</g>
<g
   transform="translate(0,-271.99799)"
   id="g10">
</g>
<g
   transform="translate(0,-271.99799)"
   id="g12">
</g>
<g
   transform="translate(0,-271.99799)"
   id="g14">
</g>
<g
   transform="translate(0,-271.99799)"
   id="g16">
</g>
<g
   transform="translate(0,-271.99799)"
   id="g18">
</g>
<g
   transform="translate(0,-271.99799)"
   id="g20">
</g>
<g
   transform="translate(0,-271.99799)"
   id="g22">
</g>
<g
   transform="translate(0,-271.99799)"
   id="g24">
</g>
<g
   transform="translate(0,-271.99799)"
   id="g26">
</g>
<g
   transform="translate(0,-271.99799)"
   id="g28">
</g>
<g
   transform="translate(0,-271.99799)"
   id="g30">
</g>
<g
   transform="translate(0,-271.99799)"
   id="g32">
</g>
<g
   transform="translate(0,-271.99799)"
   id="g34">
</g>
<g
   transform="translate(0,-271.99799)"
   id="g36">
</g>
</svg>