<?xml version="1.0" encoding="UTF-8" standalone="no"?>
<svg
   xmlns:dc="http://purl.org/dc/elements/1.1/"
   xmlns:cc="http://creativecommons.org/ns#"
   xmlns:rdf="http://www.w3.org/1999/02/22-rdf-syntax-ns#"
   xmlns:svg="http://www.w3.org/2000/svg"
   xmlns="http://www.w3.org/2000/svg"
   id="svg4"
   version="1.1"
   class="jam jam-power"
   preserveAspectRatio="xMinYMin"
   height="240"
   width="240"
   viewBox="-3 -2.5 240 240">
  <metadata
     id="metadata10">
    <rdf:RDF>
      <cc:Work
         rdf:about="">
        <dc:format>image/svg+xml</dc:format>
        <dc:type
           rdf:resource="http://purl.org/dc/dcmitype/StillImage" />
        <dc:title></dc:title>
      </cc:Work>
    </rdf:RDF>
  </metadata>
  <defs
     id="defs8" />
  <path
     style="stroke-width:12.53544807"
     id="path2"
     d="M 153.71606,50.121139 A 12.19699,12.19699 0 0 1 145.9817,38.864308 c 0,-6.718999 5.61589,-12.184454 12.53545,-12.184454 1.4541,0 2.85807,0.250707 4.16176,0.689449 0.0125,-0.03761 0.025,-0.05013 0.0501,-0.03761 39.0479,17.248774 66.19969,55.481886 66.19969,99.907527 6e-5,60.5462 -50.51779,109.66008 -112.81896,109.66008 -62.301179,0 -112.8190313,-49.10133 -112.8190313,-109.67262 0,-44.112241 26.7882503,-82.119718 65.4099633,-99.54399 a 12.811227,12.811227 0 0 1 4.913896,-0.952694 c 6.919565,0 12.535448,5.45292 12.535448,12.171921 A 12.184454,12.184454 0 0 1 78.503383,50.133676 C 48.857051,63.822383 28.361594,93.205475 28.361594,127.22668 c 0,47.10821 39.286089,85.30372 87.748136,85.30372 48.46203,0 87.74813,-38.19551 87.74813,-85.30372 0,-34.021205 -20.49548,-63.404297 -50.1418,-77.093004 z M 116.10973,-1.2741914 A 12.535448,12.535448 0 0 1 128.64517,11.26125 v 75.212684 a 12.535449,12.535449 0 1 1 -25.07089,0 V 11.26125 a 12.535448,12.535448 0 0 1 12.53545,-12.5354414 z" />
</svg>
